<svg viewBox="0 0 24 24" fill="none" xmlns="http://www.w3.org/2000/svg">
<path d="M12.0162 2.40016C12.142 2.40286 12.2595 2.44456 12.3724 2.52203L23.7724 11.522C24.0347 11.7327 24.0719 12.1214 23.8755 12.3752C23.682 12.6253 23.2703 12.6653 23.0224 12.4689L11.9974 3.76891L0.972408 12.4689C0.724524 12.6653 0.324153 12.6238 0.128658 12.3752C-0.0653698 12.1284 -0.0445078 11.7185 0.222408 11.522L4.49741 8.14703V3.00016C4.49742 2.84103 4.56064 2.68842 4.67316 2.5759C4.78568 2.46338 4.93828 2.40017 5.09741 2.40016H7.49741C7.65653 2.40017 7.80914 2.46338 7.92165 2.5759C8.03417 2.68842 8.09739 2.84103 8.09741 3.00016V5.30641L11.6224 2.52203C11.7559 2.43406 11.8903 2.39753 12.0162 2.40016ZM6.89741 3.60016H5.69741V7.20016L6.89741 6.25328V3.60016ZM19.4974 10.472L20.6974 11.4189V21.0002C20.6974 21.1593 20.6342 21.3119 20.5217 21.4244C20.4091 21.5369 20.2565 21.6001 20.0974 21.6002H14.9974C14.8383 21.6001 14.6857 21.5369 14.5732 21.4244C14.4606 21.3119 14.3974 21.1593 14.3974 21.0002V15.6002H9.59741V21.0002C9.59739 21.1593 9.53417 21.3119 9.42165 21.4244C9.30914 21.5369 9.15653 21.6001 8.99741 21.6002H3.89741C3.73828 21.6001 3.58568 21.5369 3.47316 21.4244C3.36064 21.3119 3.29742 21.1593 3.29741 21.0002V11.4189L4.49741 10.472V20.4002H8.39741V15.0002C8.39742 14.841 8.46064 14.6885 8.57316 14.5759C8.68568 14.4634 8.83828 14.4002 8.99741 14.4002H14.9974C15.1565 14.4002 15.3091 14.4634 15.4217 14.5759C15.5342 14.6885 15.5974 14.841 15.5974 15.0002V20.4002H19.4974V10.472Z" fill="black"/>
</svg>